<?xml version="1.0" standalone="no"?><!DOCTYPE svg PUBLIC "-//W3C//DTD SVG 1.1//EN" "http://www.w3.org/Graphics/SVG/1.1/DTD/svg11.dtd"><svg t="1752412110545" class="icon" viewBox="0 0 1024 1024" version="1.1" xmlns="http://www.w3.org/2000/svg" p-id="1214" xmlns:xlink="http://www.w3.org/1999/xlink" width="256" height="256"><path d="M828.784 828.784c-23.431 23.431-61.421 23.431-84.853 0L195.216 280.069c-23.431-23.431-23.431-61.421 0-84.853 23.431-23.431 61.421-23.431 84.853 0l548.715 548.715c23.431 23.431 23.431 61.421 0 84.853z" fill="#29ABE2" p-id="1215"></path><path d="M195.216 828.784c-23.431-23.431-23.431-61.421 0-84.853l548.715-548.715c23.431-23.431 61.421-23.431 84.853 0 23.431 23.431 23.431 61.421 0 84.853L280.069 828.784c-23.431 23.431-61.421 23.431-84.853 0z" fill="#29ABE2" p-id="1216"></path></svg>